<svg width="183" height="96" viewBox="0 0 183 96" fill="none" xmlns="http://www.w3.org/2000/svg">
<g clip-path="url(#clip0_826_41)">
<path fill-rule="evenodd" clip-rule="evenodd" d="M78.907 25.2009L91.3954 0L103.953 25.2009L91.4651 33.4851L78.907 25.2009Z" fill="#F1CF00"/>
<path fill-rule="evenodd" clip-rule="evenodd" d="M103.954 25.2009L79.8838 41.1429H111.837L103.954 25.2009Z" fill="#FEF48A"/>
<path fill-rule="evenodd" clip-rule="evenodd" d="M78.9069 25.2009L103.046 41.1429H71.0232L78.9069 25.2009Z" fill="#FAE766"/>
<path fill-rule="evenodd" clip-rule="evenodd" d="M71.0232 41.1429L55.186 9.46777L78.907 25.2009L71.0232 41.1429Z" fill="#FEF48A"/>
<path fill-rule="evenodd" clip-rule="evenodd" d="M111.907 41.1429L127.744 9.46777L103.954 25.2009L111.837 41.1429H111.907Z" fill="#DFB834"/>
<path fill-rule="evenodd" clip-rule="evenodd" d="M79.8838 41.1428H102.977L91.4652 33.4851L79.8838 41.1428Z" fill="#F1CF00"/>
<path fill-rule="evenodd" clip-rule="evenodd" d="M60.8372 66.7614C60.8372 66.9006 60.6977 67.0398 60.7674 67.1791C60.7674 67.3183 61.0465 67.5271 61.1163 67.6664C61.4651 67.9448 61.9535 68.0144 62.3721 68.0144C62.9302 68.0144 63.7674 66.7614 63.9767 66.3437C64.4651 65.4387 65.3023 63.2806 63.3488 63.9767C62.5116 64.1856 61.2558 65.9956 60.8372 66.7614ZM22.4651 50.9586C22.3256 51.0282 22.0465 51.0282 21.9767 51.0978C21.6279 51.1675 21.3488 51.3067 21.0698 51.4459C20.4419 51.794 18.0698 56.1102 17.6512 56.8759C16.9535 58.1986 16.2558 59.5213 15.6977 60.9136C15.6279 61.1225 15.0698 62.7237 15.3488 62.8629C15.9767 63.211 18.6279 62.306 19.2558 62.0971C21.6279 61.2617 24 60.2175 26.2325 59.1036C28.186 58.129 40.6046 51.5851 32.5814 49.984C30 49.4271 25.1163 50.3321 22.4651 50.9586ZM114.14 56.9456C114.349 56.7367 114.419 56.4582 114.628 56.2494C115.047 55.8317 115.674 55.9709 116.163 56.1798C117.698 56.6671 117.628 57.5721 116.791 58.7556C116.512 59.1733 116.093 59.4517 115.605 59.6606C115.186 59.8694 113.163 60.4263 112.814 59.8694C112.535 59.3821 113.791 57.3632 114.14 56.9456ZM122.093 74.0014C121.744 74.5583 121.395 75.1152 121.047 75.6722C119.372 77.8999 117.07 79.7099 114.279 80.058C112.186 80.3364 110.023 79.6403 108.698 78.0391C107.791 76.9253 107.442 75.6026 107.512 74.2799C106.674 75.7418 105.419 76.9253 103.814 77.4126C102.349 77.8999 100.535 77.691 99.4186 76.5076C98.9302 76.0202 98.7209 75.3937 98.5814 74.7672C98.4419 73.5141 99.2093 70.1029 99.6977 68.9194C99.7674 68.8498 99.907 68.4321 99.9767 68.2233C99.5581 68.5714 98.5116 69.6852 98.3721 69.8941C97.2558 71.1472 96.1395 72.3306 94.9535 73.5141C93.5581 74.9064 90.8372 77.5518 88.8139 77.5518C86.3023 77.6214 85.3953 76.0899 85.8139 73.7925C86.1628 71.9825 88.6047 67.1791 89.7209 65.6475C90 65.2298 90.3488 64.8121 90.6279 64.3944C90.7674 64.1856 91.8837 62.4452 91.6744 62.2363C91.3256 61.9579 89.8605 63.6983 89.6512 63.9071C88.9535 64.6729 88.2558 65.6475 87.6279 66.4133C86.5116 67.8056 85.4651 69.2675 84.3488 70.6598C83.1628 72.261 81.907 73.7925 80.6512 75.3241C79.3256 76.9253 76.4651 79.9187 74.093 79.153C73.4651 78.9441 72.9767 78.4568 72.6279 77.8999C72.0698 76.9253 71.9302 75.6722 72.0698 74.5583C64.6046 82.0768 50.4419 81.3807 53.7209 67.8056C54.6279 64.0464 56.8605 59.3821 61.3256 59.2429C64.2558 59.1733 67.1163 61.3313 67.8139 64.1856C68.3721 66.2044 67.7442 68.0841 66.3488 69.6156C65.3721 70.6598 64.186 71.356 62.7907 70.8687C62.5116 70.7295 62.2326 70.5902 61.9535 70.451C61.3953 70.1029 60.9767 69.6156 60.5581 69.1283C60.4884 68.9891 60 68.4321 59.8605 68.4321C57.8372 68.7802 58.0465 80.8237 68.1628 74.976C70.2558 73.7925 71.3721 72.261 72.9767 70.5206C73.3953 69.2675 73.8837 68.0144 74.3023 66.6917C75.3488 63.6983 76.8139 60.5656 78.2093 57.7113C78.4186 57.2936 79.1163 56.9456 79.5349 56.9456C80.9302 56.8063 81.9767 58.5467 82.5349 59.5909C83.3721 61.1225 83.7209 62.9325 83.4419 64.6729C83.2326 65.7867 82.7442 67.1791 82.3256 68.2233C81.907 69.3371 81.4884 70.451 81 71.5648C82.3256 69.9637 83.5814 68.3625 84.907 66.831C86.093 65.369 87.3488 63.9071 88.6046 62.5148C91.7442 59.034 94.4651 60.496 95.1628 64.8121C95.4418 66.2741 94.0465 69.6852 93.3488 71.2168C94.2558 70.451 95.1628 69.7548 96.0698 68.9891C96.907 68.2929 97.8139 67.5271 98.7209 66.9006C99.6279 66.2741 100.814 65.926 101.791 66.6221C102.488 67.1094 102.698 68.0144 102.628 68.8498C102.488 70.0333 100.884 74.4887 101.581 75.3937C101.791 75.6722 102.07 75.881 102.419 75.9506C104.302 76.2291 107.233 71.4256 108.07 70.1029C108.907 68.7106 109.744 67.2487 110.651 65.926C111.07 65.2994 111.977 63.8375 112.605 63.4198C113.581 62.7933 114.698 62.5148 115.674 63.2806C116.791 64.1856 115.674 65.6475 115.256 66.6221C114.209 69.0587 113.302 71.1472 113.442 73.8622C113.512 74.8368 113.791 76.0899 114.837 76.5076C115.674 76.8556 116.651 76.4379 117.349 75.9506C118.814 74.9064 120.558 72.6787 121.535 71.2168C121.814 69.0587 126.14 60.5656 127.674 59.2429C128.023 58.9644 129.07 58.7556 129.488 58.7556C131.163 58.6859 131.86 59.6606 131.372 61.3313C131.163 61.9579 130.953 62.5844 130.744 63.211C130.395 64.2552 130.047 65.2994 129.698 66.3437C129.419 67.1791 128.302 70.6598 128.512 71.4256C128.581 71.7737 128.791 72.261 129.14 72.4002C130.465 72.9572 133.395 69.4764 134.093 68.641C135.07 67.4575 135.977 66.2044 136.744 64.9514C136.884 64.6729 137.163 64.464 137.442 64.3248C137.791 64.116 138.279 64.0463 138.628 64.1856C139.326 64.5337 139.256 65.4387 139.116 66.0652C138.977 66.6221 138.767 67.2487 138.628 67.8056C138.349 68.641 138.07 69.4764 137.791 70.3814C137.512 71.2864 137.233 72.1218 136.953 73.0268C136.814 73.5837 136.605 74.1406 136.465 74.6976C136.395 74.9064 136.465 75.1152 136.535 75.3241C136.953 76.2291 138.628 76.0899 139.395 75.881C142.047 75.1849 144.837 71.2864 145.814 68.8498C146.442 67.3183 147.07 65.7867 147.698 64.2552C148.256 62.8629 148.814 61.4706 149.372 60.1479C149.721 59.3821 150.14 58.2682 150.628 57.5721C151.744 55.9013 153.488 57.8506 154.326 58.7556C157.535 62.4452 154.605 68.0841 153 71.9825C153.558 71.4952 154.116 70.7295 154.535 70.1725C155.791 68.4321 162.558 58.8948 165.07 60.6352C166.256 61.4706 167.372 63.211 167.512 64.6729C167.651 66.2741 166.395 68.9891 165.907 70.5902C165.907 70.6598 165.767 71.0079 165.767 71.2168L165.837 71.1471C166.744 70.2421 167.86 69.2675 168.907 68.4321C169.674 67.8056 170.442 67.1791 171.209 66.6221C173.791 64.8121 175.326 67.2487 174.767 69.6852C174.488 70.7295 173.442 74.2102 174.07 75.1152C174.14 75.1849 174.14 75.2545 174.209 75.2545C175.116 75.9506 177.279 74.2799 177.907 73.7229C177.977 73.6533 178.116 73.5837 178.186 73.4445C178.674 72.9572 179.163 72.261 179.581 71.7041C180.07 71.0079 180.488 70.3118 180.907 69.546C181.047 69.3371 181.465 68.4321 181.814 68.4321C182.023 68.4321 182.302 68.5018 182.442 68.641C183.14 69.2675 182.651 70.7991 182.302 71.5648C181.744 72.9572 180.698 74.4191 179.651 75.4633C179.163 75.9506 178.674 76.3683 178.116 76.7164C175.326 78.596 171.209 78.3872 170.791 74.4191C170.721 73.6533 170.86 72.7483 171.07 72.0522C171.279 71.4256 171.488 70.7991 171.698 70.1029C171.837 69.6852 172.047 69.2675 172.186 68.8498C172.256 68.641 172.326 68.0144 172.047 67.9448C171.977 67.9448 171.907 67.9448 171.907 68.0144C171.209 68.5714 170.442 69.4068 169.814 70.1029C168.907 71.1471 167.93 72.1218 167.023 73.166C165.698 74.5583 162.14 78.2479 159.977 77.4126C159.419 77.2037 158.791 76.8556 158.442 76.2987C157.744 75.1849 158.302 73.3052 158.581 72.1914C159.419 69.0587 162 65.6475 163.744 62.9325C163.814 62.8629 164.163 62.2363 164.093 62.0971C163.884 61.9579 162.907 62.7933 162.767 62.9325C162.209 63.4894 161.651 64.1856 161.163 64.8817C160.465 65.7867 159.767 66.7614 159.07 67.736C158.233 68.9195 157.395 70.0333 156.628 71.2168C155.581 72.7483 154.535 74.2799 153.279 75.6026C151.884 77.1341 149.442 79.5706 147.14 79.153C145.605 78.8745 144.767 77.8303 144.558 76.3683C144.488 75.8114 144.488 75.0456 144.628 74.4191C143.233 76.2291 141.419 77.8999 139.326 78.7353C137.651 79.4314 135.628 79.6403 134.023 78.596C132.14 77.4822 131.721 75.2545 131.791 73.166C131.581 73.3052 131.093 73.6533 131.023 73.7229C129.419 74.976 126.977 76.2291 124.884 75.7418C123.977 75.6722 122.651 75.0456 122.093 74.0014ZM51.3488 68.641C51.4186 68.3625 51.8372 68.1537 52.1163 68.2929C52.2558 68.3625 52.3953 68.5018 52.4651 68.641C52.8837 69.546 51.2791 70.7991 50.5814 71.0775C49.1163 71.7737 47.5116 71.6345 46.3953 70.3118C46.2558 70.1029 46.1163 69.8941 45.9767 69.6156C45.6279 68.7802 45.6977 67.8752 45.8372 66.9702C45.9767 66.3437 46.1163 65.7171 46.3256 65.0906C46.3953 64.7425 46.6046 64.1856 46.6046 63.7679C46.6046 62.654 45.7674 63.9767 45.6279 64.3248C45.2791 65.3691 45 66.6221 44.7907 67.736C44.4419 69.3371 44.0233 70.9383 43.5349 72.5395C42.6977 75.3937 40.8139 80.6845 37.0465 80.4757C33.907 80.406 33.5581 77.691 33.6279 75.0456C33.6279 73.2356 33.8372 71.4256 34.0465 69.6156C34.3256 67.5271 34.6046 65.2994 35.2326 63.2806C35.5814 62.2363 36.907 57.7113 38.5814 58.129C40.1163 58.5467 41.5116 59.3821 42.3488 60.7048C43.4651 62.5148 42.7674 64.116 41.9302 65.8564C41.5116 66.7614 41.0232 67.736 40.5349 68.641C40.3953 68.9891 38.7907 72.3306 39.2093 72.6091C39.9767 73.0268 41.0232 70.7991 41.2326 70.3814C41.7907 69.2675 42.2791 67.8752 42.6977 66.6221C43.1163 65.5779 43.5349 64.464 44.0232 63.4894C45.7674 60.1479 48.907 59.8694 49.6046 64.0464C49.6744 64.5337 49.7442 65.0906 49.7442 65.5779C49.7442 66.4133 49.6744 67.2487 49.6744 68.0841C49.6744 68.2929 49.6744 69.1283 49.9535 69.2675C50.5814 69.4764 51.1395 68.9891 51.3488 68.641ZM12.9767 66.831C12.2093 68.9194 11.4419 71.0079 10.6744 73.0964C10.0465 74.9064 9.34883 76.786 8.86046 78.596C8.58139 79.6403 8.37208 80.6845 8.02325 81.6591C7.81395 82.3553 7.53488 83.121 6.97674 83.6084C6.76743 83.8172 6.48836 84.0261 6.13953 84.0957C5.02325 84.583 0.279061 86.3234 -0.0697758 84.1653C-0.627915 80.5453 2.93022 71.9825 4.32557 68.5018C6.34883 64.0464 8.51162 59.3821 10.8139 54.9963C11.2326 54.1609 11.7907 53.0471 10.3256 53.3255C9.06976 53.5344 6.13953 54.9267 6.27906 52.5598C6.34883 51.6548 6.48836 50.8194 6.69767 49.984C6.76743 49.6359 6.97674 49.1486 7.0465 48.8005V48.6613C7.25581 47.7563 8.79069 47.3386 9.48836 47.1994C10.186 47.0601 10.9535 46.8513 11.5814 46.712C12.7674 46.4336 13.9535 46.1551 15.1395 45.8767C18.2791 45.1805 21.4884 44.554 24.6977 44.2755C26.2326 44.1363 27.6977 44.0667 29.2326 44.0667C37.6046 44.1363 44.1628 49.1486 36.7674 56.7367C34.6046 58.9644 31.8139 60.6352 29.0232 61.9579C25.5349 63.559 21.8372 64.8121 18.1395 65.7171C16.4651 66.1348 14.7209 66.5525 12.9767 66.831Z" fill="#6E4733"/>
<path fill-rule="evenodd" clip-rule="evenodd" d="M180.837 95.3736C180.837 95.4432 180.837 95.5128 180.767 95.5824C180.767 95.652 180.698 95.7216 180.628 95.7216C180.558 95.7912 180.488 95.7913 180.488 95.7913C180.419 95.7913 180.349 95.7913 180.279 95.7913H179.86C179.721 95.7913 179.651 95.7912 179.512 95.7216C179.442 95.7216 179.302 95.652 179.233 95.5824C179.163 95.5128 179.093 95.4432 178.953 95.3039C178.884 95.1647 178.814 95.0255 178.674 94.8862L175.884 89.7347C175.744 89.4562 175.605 89.1778 175.465 88.8993C175.326 88.6208 175.186 88.3424 175.046 88.0639C175.046 88.412 175.046 88.7601 175.046 89.1081C175.046 89.4562 175.046 89.8043 175.046 90.1524V95.5824V95.652L174.977 95.7216C174.907 95.7216 174.837 95.7216 174.767 95.7913C174.698 95.7913 174.628 95.7913 174.488 95.7913C174.349 95.7913 174.279 95.7913 174.209 95.7913C174.139 95.7913 174.07 95.7912 174 95.7216C173.93 95.7216 173.93 95.652 173.93 95.652V95.5824V87.2981C173.93 87.0893 174 86.9501 174.07 86.8804C174.209 86.8108 174.279 86.7412 174.419 86.7412H174.977C175.116 86.7412 175.256 86.7412 175.326 86.8108C175.395 86.8108 175.535 86.8804 175.605 86.9501C175.674 87.0197 175.744 87.0893 175.814 87.1589C175.884 87.2285 175.953 87.3678 176.023 87.507L178.116 91.4751C178.256 91.6839 178.395 91.9624 178.465 92.1712C178.605 92.3801 178.674 92.6585 178.814 92.8674C178.953 93.0762 179.023 93.2851 179.163 93.4939C179.302 93.7028 179.372 93.9116 179.512 94.1205C179.512 93.7724 179.512 93.3547 179.512 93.0066C179.512 92.5889 179.512 92.2408 179.512 91.8928V87.0197V86.9501L179.581 86.8804C179.651 86.8804 179.721 86.8108 179.791 86.8108C179.86 86.8108 180 86.8108 180.07 86.8108C180.209 86.8108 180.279 86.8108 180.349 86.8108C180.419 86.8108 180.488 86.8108 180.558 86.8804C180.628 86.8804 180.628 86.9501 180.628 86.9501V87.0197V95.3736H180.837ZM172.046 95.3736C172.046 95.4432 172.046 95.5128 172.046 95.5824C172.046 95.652 172.046 95.7216 171.977 95.7216C171.977 95.7912 171.907 95.7913 171.907 95.7913H171.837H167.442C167.302 95.7913 167.233 95.7216 167.163 95.652C167.093 95.5824 167.023 95.4432 167.023 95.3039V87.2981C167.023 87.0893 167.093 87.0197 167.163 86.9501C167.233 86.8804 167.372 86.8108 167.442 86.8108H171.698C171.767 86.8108 171.767 86.8108 171.767 86.8108L171.837 86.8804C171.837 86.9501 171.837 86.9501 171.907 87.0197C171.907 87.0893 171.907 87.1589 171.907 87.2285C171.907 87.2981 171.907 87.3678 171.907 87.4374C171.907 87.507 171.907 87.5766 171.837 87.5766C171.837 87.6462 171.767 87.6462 171.767 87.6462H171.698H168.14V90.5005H171.139C171.209 90.5005 171.209 90.5005 171.209 90.5005L171.279 90.5701C171.279 90.6397 171.349 90.6397 171.349 90.7093C171.349 90.7789 171.349 90.8485 171.349 90.9182C171.349 90.9878 171.349 91.0574 171.349 91.127C171.349 91.1966 171.349 91.2662 171.279 91.2662C171.279 91.3359 171.209 91.3358 171.209 91.3358H171.139H168.14V94.5382H171.698C171.767 94.5382 171.767 94.5382 171.767 94.5382L171.837 94.6078C171.837 94.6774 171.907 94.6774 171.907 94.747C172.046 95.2343 172.046 95.3039 172.046 95.3736ZM164.581 95.7216C164.581 95.7912 164.581 95.7913 164.581 95.7913L164.512 95.8609C164.442 95.8609 164.372 95.8609 164.302 95.9305C164.233 95.9305 164.163 95.9305 164.023 95.9305C163.884 95.9305 163.814 95.9305 163.744 95.9305C163.674 95.9305 163.605 95.9305 163.535 95.8609C163.465 95.8609 163.465 95.7913 163.465 95.7913V95.7216V91.7535H159.349V95.7216C159.349 95.7912 159.349 95.7913 159.349 95.7913L159.279 95.8609C159.209 95.8609 159.14 95.8609 159.07 95.9305C159 95.9305 158.93 95.9305 158.791 95.9305C158.651 95.9305 158.581 95.9305 158.512 95.9305C158.442 95.9305 158.372 95.9305 158.302 95.8609C158.233 95.8609 158.233 95.7913 158.233 95.7913V95.7216V87.0893C158.233 87.0197 158.233 87.0197 158.233 87.0197L158.302 86.9501C158.372 86.9501 158.442 86.9501 158.512 86.8804C158.581 86.8804 158.651 86.8804 158.791 86.8804C158.93 86.8804 159 86.8804 159.07 86.8804C159.14 86.8804 159.209 86.8804 159.279 86.9501C159.349 86.9501 159.349 87.0197 159.349 87.0197V87.0893V90.7093H163.465V87.0893C163.465 87.0197 163.465 87.0197 163.465 87.0197L163.535 86.9501C163.605 86.9501 163.674 86.9501 163.744 86.8804C163.814 86.8804 163.884 86.8804 164.023 86.8804C164.163 86.8804 164.233 86.8804 164.302 86.8804C164.372 86.8804 164.442 86.8804 164.512 86.9501C164.581 86.9501 164.581 87.0197 164.581 87.0197V87.0893V95.7216ZM156.488 94.6078C156.488 94.6774 156.488 94.747 156.488 94.8166C156.488 94.8862 156.488 94.8862 156.488 94.9559C156.488 95.0255 156.488 95.0255 156.419 95.0951C156.419 95.0951 156.349 95.1647 156.349 95.2343C156.279 95.3039 156.209 95.3736 156.07 95.4432C155.93 95.5128 155.721 95.652 155.512 95.7216C155.302 95.7912 155.023 95.8609 154.744 95.9305C154.465 96.0001 154.116 96.0001 153.837 96.0001C153.279 96.0001 152.721 95.9305 152.233 95.7216C151.744 95.5128 151.326 95.2343 151.046 94.8862C150.698 94.5382 150.488 94.0509 150.279 93.4939C150.07 92.937 150 92.3105 150 91.5447C150 90.7789 150.07 90.1524 150.279 89.5258C150.488 88.9689 150.767 88.412 151.116 88.0639C151.465 87.6462 151.884 87.3678 152.372 87.1589C152.86 86.9501 153.419 86.8108 153.977 86.8108C154.256 86.8108 154.465 86.8108 154.744 86.8804C155.023 86.9501 155.233 87.0197 155.442 87.0893C155.651 87.1589 155.86 87.2285 156 87.3678C156.14 87.4374 156.279 87.5766 156.349 87.5766C156.419 87.6462 156.419 87.7158 156.488 87.7158C156.488 87.7158 156.488 87.7854 156.558 87.8551C156.558 87.9247 156.558 87.9247 156.558 87.9943C156.558 88.0639 156.558 88.1335 156.558 88.2031C156.558 88.2728 156.558 88.3424 156.558 88.412C156.558 88.4816 156.558 88.5512 156.488 88.5512C156.488 88.6208 156.419 88.6208 156.419 88.6208H156.349C156.279 88.6208 156.209 88.5512 156.07 88.4816C155.93 88.412 155.791 88.2728 155.651 88.2031C155.442 88.0639 155.233 87.9943 154.953 87.9247C154.674 87.8551 154.395 87.7854 153.977 87.7854C153.558 87.7854 153.209 87.8551 152.86 87.9943C152.512 88.1335 152.233 88.412 152.023 88.6905C151.814 88.9689 151.605 89.3866 151.465 89.8043C151.326 90.222 151.256 90.7789 151.256 91.3358C151.256 91.8928 151.326 92.3801 151.465 92.8674C151.605 93.2851 151.744 93.7028 152.023 93.9812C152.233 94.2597 152.512 94.4686 152.86 94.6774C153.209 94.8166 153.558 94.8862 153.977 94.8862C154.326 94.8862 154.674 94.8166 154.953 94.747C155.233 94.6774 155.442 94.5382 155.651 94.4685C155.86 94.3293 156 94.2597 156.14 94.1901C156.279 94.1205 156.349 94.0509 156.419 94.0509H156.488L156.558 94.1205C156.558 94.1901 156.558 94.1901 156.558 94.2597C156.488 94.4685 156.488 94.5382 156.488 94.6078ZM149.442 87.4374C149.442 87.507 149.442 87.5766 149.442 87.6462C149.442 87.7158 149.442 87.7854 149.372 87.7854C149.372 87.8551 149.302 87.8551 149.302 87.8551H149.233H146.721V95.652C146.721 95.7216 146.721 95.7216 146.721 95.7216L146.651 95.7913C146.581 95.7913 146.512 95.7912 146.442 95.8609C146.372 95.8609 146.302 95.8609 146.163 95.8609C146.023 95.8609 145.953 95.8609 145.884 95.8609C145.814 95.8609 145.744 95.8609 145.674 95.7913C145.605 95.7913 145.605 95.7216 145.605 95.7216V95.652V87.8551H143.093C143.023 87.8551 143.023 87.8551 143.023 87.8551L142.953 87.7854C142.953 87.7158 142.953 87.7158 142.884 87.6462C142.884 87.5766 142.884 87.507 142.884 87.4374C142.884 87.3678 142.884 87.2981 142.884 87.2285C142.884 87.1589 142.884 87.0893 142.953 87.0893C142.953 87.0197 143.023 87.0197 143.023 87.0197H143.093H149.372C149.442 87.0197 149.442 87.0197 149.442 87.0197L149.512 87.0893C149.512 87.1589 149.581 87.1589 149.581 87.2285C149.442 87.2285 149.442 87.2981 149.442 87.4374ZM141.419 95.7216C141.419 95.7912 141.419 95.7913 141.419 95.7913L141.349 95.8609C141.279 95.8609 141.209 95.8609 141.14 95.9305C141.07 95.9305 141 95.9305 140.86 95.9305C140.721 95.9305 140.651 95.9305 140.581 95.9305C140.512 95.9305 140.442 95.9305 140.372 95.8609C140.302 95.8609 140.302 95.7913 140.302 95.7913V95.7216V87.0893C140.302 87.0197 140.302 87.0197 140.302 87.0197C140.302 87.0197 140.372 86.9501 140.442 86.9501C140.512 86.9501 140.581 86.9501 140.651 86.8804C140.721 86.8804 140.791 86.8804 140.93 86.8804C141.07 86.8804 141.139 86.8804 141.209 86.8804C141.279 86.8804 141.349 86.8804 141.419 86.9501C141.488 86.9501 141.488 87.0197 141.488 87.0197V87.0893V95.7216H141.419ZM138.698 95.7216C138.698 95.7912 138.698 95.7913 138.698 95.7913L138.628 95.8609C138.558 95.8609 138.488 95.8609 138.419 95.9305C138.349 95.9305 138.209 95.9305 138.139 95.9305C138 95.9305 137.86 95.9305 137.721 95.9305C137.651 95.9305 137.512 95.8609 137.512 95.8609C137.442 95.7912 137.442 95.7912 137.372 95.7216L134.023 91.1966V95.7216V95.7913L133.953 95.8609C133.884 95.8609 133.814 95.8609 133.744 95.9305C133.674 95.9305 133.605 95.9305 133.465 95.9305C133.326 95.9305 133.256 95.9305 133.186 95.9305C133.116 95.9305 133.046 95.9305 132.977 95.8609C132.907 95.8609 132.907 95.7913 132.907 95.7913V95.7216V87.0893C132.907 87.0197 132.907 87.0197 132.907 87.0197L132.977 86.9501C133.046 86.9501 133.116 86.9501 133.186 86.8804C133.256 86.8804 133.326 86.8804 133.465 86.8804C133.605 86.8804 133.674 86.8804 133.744 86.8804C133.814 86.8804 133.884 86.8804 133.953 86.9501C134.023 86.9501 134.023 87.0197 134.023 87.0197V87.0893V91.127L137.233 87.0893C137.233 87.0197 137.302 87.0197 137.302 86.9501C137.372 86.9501 137.372 86.8804 137.442 86.8804C137.512 86.8804 137.581 86.8804 137.651 86.8108C137.721 86.8108 137.86 86.8108 137.93 86.8108C138.07 86.8108 138.14 86.8108 138.209 86.8108C138.279 86.8108 138.349 86.8108 138.419 86.8804C138.488 86.8804 138.488 86.9501 138.488 86.9501V87.0197C138.488 87.0893 138.488 87.1589 138.419 87.2285C138.419 87.2981 138.349 87.3678 138.279 87.507L135.279 91.0574L138.488 95.3039C138.558 95.4432 138.628 95.5128 138.628 95.5824C138.698 95.652 138.698 95.652 138.698 95.7216ZM128.233 95.3736C128.233 95.4432 128.233 95.5128 128.233 95.5824C128.233 95.652 128.233 95.7216 128.163 95.7216C128.163 95.7912 128.093 95.7913 128.093 95.7913C128.093 95.7913 128.023 95.7913 127.953 95.7913H123.977C123.837 95.7913 123.767 95.7216 123.698 95.652C123.628 95.5824 123.558 95.4432 123.558 95.3039V86.9501C123.558 86.8804 123.558 86.8804 123.558 86.8804L123.628 86.8108C123.698 86.8108 123.767 86.8108 123.837 86.7412C123.907 86.7412 123.977 86.7412 124.116 86.7412C124.256 86.7412 124.326 86.7412 124.395 86.7412C124.465 86.7412 124.535 86.7412 124.605 86.8108C124.674 86.8108 124.674 86.8804 124.674 86.8804V86.9501V94.747H127.884C127.953 94.747 127.953 94.747 128.023 94.747L128.093 94.8166C128.093 94.8862 128.163 94.8862 128.163 94.9559C128.233 95.2343 128.233 95.3039 128.233 95.3736ZM118.186 88.0639L116.651 92.5889H119.791L118.186 88.0639ZM122.023 95.4432C122.093 95.5128 122.093 95.652 122.093 95.7216C122.093 95.7912 122.093 95.8609 122.023 95.8609C121.953 95.8609 121.953 95.9305 121.814 95.9305C121.744 95.9305 121.605 95.9305 121.465 95.9305C121.326 95.9305 121.186 95.9305 121.116 95.9305C121.046 95.9305 120.977 95.9305 120.907 95.8609C120.837 95.8609 120.837 95.7913 120.837 95.7913L120.767 95.7216L120 93.4939H116.233L115.465 95.652C115.465 95.7216 115.465 95.7216 115.395 95.7913L115.326 95.8609C115.256 95.8609 115.186 95.9305 115.116 95.9305C115.046 95.9305 114.907 95.9305 114.767 95.9305C114.628 95.9305 114.488 95.9305 114.419 95.9305C114.349 95.9305 114.279 95.9305 114.209 95.8609C114.139 95.8609 114.139 95.7912 114.139 95.7216C114.139 95.652 114.139 95.5824 114.209 95.4432L117.209 87.0893C117.209 87.0197 117.279 87.0197 117.279 86.9501C117.279 86.9501 117.349 86.8804 117.419 86.8804C117.488 86.8804 117.558 86.8804 117.628 86.8108C117.698 86.8108 117.837 86.8108 117.977 86.8108C118.116 86.8108 118.256 86.8108 118.326 86.8108C118.395 86.8108 118.535 86.8108 118.535 86.8804C118.605 86.8804 118.674 86.9501 118.674 86.9501C118.674 87.0197 118.744 87.0197 118.744 87.0893L122.023 95.4432ZM112.884 95.7216C112.884 95.7912 112.884 95.7913 112.884 95.7913L112.814 95.8609C112.744 95.8609 112.674 95.8609 112.605 95.9305C112.535 95.9305 112.465 95.9305 112.326 95.9305C112.186 95.9305 112.116 95.9305 112.046 95.9305C111.977 95.9305 111.907 95.9305 111.837 95.8609C111.767 95.8609 111.767 95.7913 111.767 95.7913V95.7216V87.0893C111.767 87.0197 111.767 87.0197 111.767 87.0197C111.767 87.0197 111.837 86.9501 111.907 86.9501C111.977 86.9501 112.046 86.9501 112.116 86.8804C112.186 86.8804 112.256 86.8804 112.395 86.8804C112.535 86.8804 112.605 86.8804 112.674 86.8804C112.744 86.8804 112.814 86.8804 112.884 86.9501C112.953 86.9501 112.953 87.0197 112.953 87.0197V87.0893V95.7216H112.884ZM110.372 87.4374C110.372 87.507 110.372 87.5766 110.372 87.6462C110.372 87.7158 110.372 87.7854 110.302 87.7854C110.302 87.8551 110.233 87.8551 110.233 87.8551H110.163H107.651V95.652C107.651 95.7216 107.651 95.7216 107.651 95.7216L107.581 95.7913C107.512 95.7913 107.442 95.7912 107.372 95.8609C107.302 95.8609 107.233 95.8609 107.093 95.8609C106.953 95.8609 106.884 95.8609 106.814 95.8609C106.744 95.8609 106.674 95.8609 106.605 95.7913C106.535 95.7913 106.535 95.7216 106.535 95.7216V95.652V87.8551H104.023C103.953 87.8551 103.953 87.8551 103.953 87.8551L103.884 87.7854C103.884 87.7158 103.884 87.7158 103.814 87.6462C103.814 87.5766 103.814 87.507 103.814 87.4374C103.814 87.3678 103.814 87.2981 103.814 87.2285C103.814 87.1589 103.814 87.0893 103.884 87.0893C103.884 87.0197 103.953 87.0197 103.953 87.0197H104.023H110.302C110.372 87.0197 110.372 87.0197 110.372 87.0197L110.442 87.0893C110.442 87.1589 110.512 87.1589 110.512 87.2285C110.372 87.2285 110.372 87.2981 110.372 87.4374ZM102.349 95.3736C102.349 95.4432 102.349 95.5128 102.279 95.5824C102.279 95.652 102.209 95.7216 102.139 95.7216C102.07 95.7912 102 95.7913 102 95.7913C101.93 95.7913 101.86 95.7913 101.791 95.7913H101.372C101.233 95.7913 101.163 95.7912 101.023 95.7216C100.953 95.7216 100.814 95.652 100.744 95.5824C100.674 95.5128 100.605 95.4432 100.465 95.3039C100.395 95.1647 100.326 95.0255 100.186 94.8862L97.3953 89.7347C97.2558 89.4562 97.1162 89.1778 96.9767 88.8993C96.8372 88.6208 96.6976 88.3424 96.5581 88.0639C96.5581 88.412 96.5581 88.7601 96.5581 89.1081C96.5581 89.4562 96.5581 89.8043 96.5581 90.1524V95.5824V95.652L96.4883 95.7216C96.4186 95.7216 96.3488 95.7216 96.279 95.7913C96.2093 95.7913 96.1395 95.7913 96 95.7913C95.8604 95.7913 95.7907 95.7913 95.7209 95.7913C95.6511 95.7913 95.5814 95.7912 95.5116 95.7216C95.4418 95.7216 95.4418 95.652 95.4418 95.652V95.5824V87.2981C95.4418 87.0893 95.5116 86.9501 95.5814 86.8804C95.7209 86.8108 95.7907 86.7412 95.9302 86.7412H96.4883C96.6279 86.7412 96.7674 86.7412 96.8372 86.8108C96.9069 86.8108 97.0465 86.8804 97.1162 86.9501C97.186 87.0197 97.2558 87.0893 97.3255 87.1589C97.3953 87.2285 97.4651 87.3678 97.5348 87.507L99.6279 91.4751C99.7674 91.6839 99.9069 91.9624 99.9767 92.1712C100.116 92.3801 100.186 92.6585 100.326 92.8674C100.465 93.0762 100.535 93.2851 100.674 93.4939C100.814 93.7028 100.884 93.9116 101.023 94.1205C101.023 93.7724 101.023 93.3547 101.023 93.0066C101.023 92.5889 101.023 92.2408 101.023 91.8928V87.0197V86.9501L101.093 86.8804C101.163 86.8804 101.233 86.8108 101.302 86.8108C101.372 86.8108 101.512 86.8108 101.581 86.8108C101.721 86.8108 101.791 86.8108 101.86 86.8108C101.93 86.8108 102 86.8108 102.07 86.8804C102.139 86.8804 102.139 86.9501 102.139 86.9501V87.0197V95.3736H102.349ZM93.5581 95.3736C93.5581 95.4432 93.5581 95.5128 93.5581 95.5824C93.5581 95.652 93.5581 95.7216 93.4883 95.7216C93.4883 95.7912 93.4186 95.7913 93.4186 95.7913H93.3488H89.0232C88.8837 95.7913 88.8139 95.7216 88.7441 95.652C88.6744 95.5824 88.6046 95.4432 88.6046 95.3039V87.2981C88.6046 87.0893 88.6744 87.0197 88.7441 86.9501C88.8139 86.8804 88.9534 86.8108 89.0232 86.8108H93.279C93.3488 86.8108 93.3488 86.8108 93.3488 86.8108L93.4186 86.8804C93.4186 86.9501 93.4186 86.9501 93.4883 87.0197C93.4883 87.0893 93.4883 87.1589 93.4883 87.2285C93.4883 87.2981 93.4883 87.3678 93.4883 87.4374C93.4883 87.507 93.4883 87.5766 93.4186 87.5766C93.4186 87.6462 93.3488 87.6462 93.3488 87.6462H93.279H89.7209V90.5005H92.7209C92.7907 90.5005 92.7907 90.5005 92.7907 90.5005L92.8604 90.5701C92.8604 90.6397 92.9302 90.6397 92.9302 90.7093C92.9302 90.7789 92.9302 90.8485 92.9302 90.9182C92.9302 90.9878 92.9302 91.0574 92.9302 91.127C92.9302 91.1966 92.9302 91.2662 92.8604 91.2662C92.8604 91.3359 92.7907 91.3358 92.7907 91.3358H92.7209H89.7209V94.5382H93.279C93.3488 94.5382 93.3488 94.5382 93.3488 94.5382L93.4186 94.6078C93.4186 94.6774 93.4883 94.6774 93.4883 94.747C93.5581 95.2343 93.5581 95.3039 93.5581 95.3736ZM86.7907 93.3547C86.7907 93.7724 86.7209 94.1205 86.5814 94.4685C86.4418 94.8166 86.2325 95.0951 85.9534 95.3039C85.6744 95.5128 85.3255 95.7216 84.9767 95.7913C84.6279 95.9305 84.2093 95.9305 83.7907 95.9305C83.5116 95.9305 83.2325 95.9305 82.9534 95.8609C82.6744 95.7912 82.4651 95.7216 82.2558 95.652C82.0465 95.5824 81.9069 95.5128 81.7674 95.4432C81.6279 95.3736 81.5581 95.3039 81.4883 95.2343C81.4186 95.1647 81.4186 95.0951 81.3488 95.0255C81.3488 94.9559 81.279 94.8166 81.279 94.6774C81.279 94.6078 81.279 94.4686 81.279 94.3989C81.279 94.3293 81.279 94.2597 81.3488 94.2597C81.3488 94.1901 81.4186 94.1901 81.4186 94.1901H81.4883C81.5581 94.1901 81.6279 94.2597 81.7674 94.3293C81.9069 94.3989 82.0465 94.4685 82.2558 94.6078C82.4651 94.6774 82.6744 94.8166 82.9534 94.8862C83.2325 94.9559 83.5116 95.0255 83.8604 95.0255C84.1395 95.0255 84.3488 94.9559 84.5581 94.8862C84.7674 94.8166 84.9767 94.747 85.1162 94.6078C85.2558 94.4685 85.3953 94.3293 85.4651 94.1205C85.5348 93.9116 85.6046 93.7028 85.6046 93.4939C85.6046 93.2155 85.5348 93.0066 85.4651 92.8674C85.3255 92.6585 85.186 92.5193 84.9767 92.3801C84.7674 92.2408 84.5581 92.1016 84.3488 92.032C84.0697 91.8928 83.8604 91.8232 83.5814 91.6839C83.3023 91.5447 83.093 91.4055 82.8139 91.2662C82.6046 91.127 82.3255 90.9878 82.186 90.7789C81.9767 90.5701 81.8372 90.3612 81.6976 90.0828C81.5581 89.8043 81.4883 89.5258 81.4883 89.1081C81.4883 88.7601 81.5581 88.412 81.6976 88.1335C81.8372 87.8551 82.0465 87.5766 82.2558 87.3678C82.5348 87.1589 82.8139 87.0197 83.093 86.8804C83.4418 86.7412 83.7907 86.7412 84.2093 86.7412C84.4186 86.7412 84.6279 86.7412 84.8372 86.8108C85.0465 86.8804 85.2558 86.8804 85.3953 86.9501C85.6046 87.0197 85.7441 87.0893 85.8837 87.1589C86.0232 87.2285 86.093 87.2981 86.1628 87.2981C86.2325 87.3678 86.2325 87.3678 86.2325 87.4374V87.507C86.2325 87.5766 86.2325 87.5766 86.2325 87.6462C86.2325 87.7158 86.2325 87.7854 86.2325 87.8551C86.2325 87.9247 86.2325 87.9943 86.2325 88.0639C86.2325 88.1335 86.2325 88.2031 86.2325 88.2031C86.2325 88.2728 86.2325 88.2728 86.1628 88.2728H86.093C86.0232 88.2728 85.9534 88.2728 85.8837 88.2031C85.7441 88.1335 85.6744 88.0639 85.4651 87.9943C85.3255 87.9247 85.1162 87.8551 84.9069 87.7854C84.6976 87.7158 84.4186 87.7158 84.2093 87.7158C83.9302 87.7158 83.7209 87.7158 83.5814 87.7854C83.3721 87.8551 83.2325 87.9247 83.093 88.0639C82.9534 88.2031 82.8837 88.2728 82.8139 88.4816C82.7441 88.6208 82.7441 88.8297 82.7441 88.9689C82.7441 89.2474 82.8139 89.4562 82.8837 89.5955C83.0232 89.8043 83.1628 89.9435 83.3721 90.0828C83.5814 90.222 83.7907 90.3612 84 90.4308C84.279 90.5701 84.4883 90.6397 84.7674 90.7789C85.0465 90.9181 85.2558 91.0574 85.5348 91.1966C85.8139 91.3358 86.0232 91.4751 86.1628 91.6839C86.3721 91.8928 86.5116 92.1016 86.6511 92.3801C86.7907 92.7282 86.7907 93.0066 86.7907 93.3547ZM80.2325 93.3547C80.2325 93.7724 80.1627 94.1205 80.0232 94.4685C79.8837 94.8166 79.6744 95.0951 79.3953 95.3039C79.1162 95.5128 78.7674 95.7216 78.4186 95.7913C78.0697 95.9305 77.6511 95.9305 77.2325 95.9305C76.9534 95.9305 76.6744 95.9305 76.3953 95.8609C76.1162 95.7912 75.9069 95.7216 75.6976 95.652C75.4883 95.5824 75.3488 95.5128 75.2093 95.4432C75.0697 95.3736 75 95.3039 74.9302 95.2343C74.8604 95.1647 74.8604 95.0951 74.7907 95.0255C74.7907 94.9559 74.7209 94.8166 74.7209 94.6774C74.7209 94.6078 74.7209 94.4686 74.7209 94.3989C74.7209 94.3293 74.7209 94.2597 74.7907 94.2597C74.7907 94.1901 74.8604 94.1901 74.8604 94.1901H74.9302C75 94.1901 75.0697 94.2597 75.2093 94.3293C75.3488 94.3989 75.4883 94.4685 75.6976 94.6078C75.9069 94.6774 76.1162 94.8166 76.3953 94.8862C76.6744 94.9559 76.9535 95.0255 77.3023 95.0255C77.5814 95.0255 77.7907 94.9559 78 94.8862C78.2093 94.8166 78.4186 94.747 78.5581 94.6078C78.6976 94.4685 78.8372 94.3293 78.9069 94.1205C78.9767 93.9116 79.0465 93.7028 79.0465 93.4939C79.0465 93.2155 78.9767 93.0066 78.9069 92.8674C78.7674 92.6585 78.6279 92.5193 78.4186 92.3801C78.2093 92.2408 78 92.1016 77.7907 92.032C77.5116 91.8928 77.3023 91.8232 77.0232 91.6839C76.7441 91.5447 76.5348 91.4055 76.2558 91.2662C76.0465 91.127 75.7674 90.9878 75.6279 90.7789C75.4186 90.5701 75.279 90.3612 75.1395 90.0828C75 89.8043 74.9302 89.5258 74.9302 89.1081C74.9302 88.7601 75 88.412 75.1395 88.1335C75.279 87.8551 75.4883 87.5766 75.6976 87.3678C75.9767 87.1589 76.2558 87.0197 76.5348 86.8804C76.8837 86.7412 77.2325 86.7412 77.6511 86.7412C77.8604 86.7412 78.0697 86.7412 78.279 86.8108C78.4883 86.8804 78.6976 86.8804 78.8372 86.9501C79.0465 87.0197 79.186 87.0893 79.3255 87.1589C79.4651 87.2285 79.5348 87.2981 79.6046 87.2981C79.6744 87.3678 79.6744 87.3678 79.6744 87.4374V87.507C79.6744 87.5766 79.6744 87.5766 79.6744 87.6462C79.6744 87.7158 79.6744 87.7854 79.6744 87.8551C79.6744 87.9247 79.6744 87.9943 79.6744 88.0639C79.6744 88.1335 79.6744 88.2031 79.6744 88.2031C79.6744 88.2728 79.6744 88.2728 79.6046 88.2728H79.5348C79.4651 88.2728 79.3953 88.2728 79.3255 88.2031C79.186 88.1335 79.1162 88.0639 78.9069 87.9943C78.7674 87.9247 78.5581 87.8551 78.3488 87.7854C78.1395 87.7158 77.8604 87.7158 77.6511 87.7158C77.3721 87.7158 77.1628 87.7158 77.0232 87.7854C76.8139 87.8551 76.6744 87.9247 76.5348 88.0639C76.3953 88.2031 76.3255 88.2728 76.2558 88.4816C76.186 88.6208 76.186 88.8297 76.186 88.9689C76.186 89.2474 76.2558 89.4562 76.3255 89.5955C76.4651 89.8043 76.6046 89.9435 76.8139 90.0828C77.0232 90.222 77.2325 90.3612 77.4418 90.4308C77.7209 90.5701 77.9302 90.6397 78.2093 90.7789C78.4883 90.9181 78.6976 91.0574 78.9767 91.1966C79.2558 91.3358 79.4651 91.4751 79.6046 91.6839C79.8139 91.8928 79.9535 92.1016 80.093 92.3801C80.1628 92.7282 80.2325 93.0066 80.2325 93.3547ZM73.6046 95.3736C73.6046 95.4432 73.6046 95.5128 73.6046 95.5824C73.6046 95.652 73.6046 95.7216 73.5348 95.7216C73.5348 95.7912 73.4651 95.7913 73.4651 95.7913H73.3953H69.0697C68.9302 95.7913 68.8604 95.7216 68.7907 95.652C68.7209 95.5824 68.6511 95.4432 68.6511 95.3039V87.2981C68.6511 87.0893 68.7209 87.0197 68.7907 86.9501C68.8604 86.8804 69 86.8108 69.0697 86.8108H73.3255C73.3953 86.8108 73.3953 86.8108 73.3953 86.8108L73.4651 86.8804C73.4651 86.9501 73.4651 86.9501 73.5348 87.0197C73.5348 87.0893 73.5348 87.1589 73.5348 87.2285C73.5348 87.2981 73.5348 87.3678 73.5348 87.4374C73.5348 87.507 73.5348 87.5766 73.4651 87.5766C73.4651 87.6462 73.3953 87.6462 73.3953 87.6462H73.3255H69.7674V90.5005H72.7674C72.8372 90.5005 72.8372 90.5005 72.8372 90.5005L72.9069 90.5701C72.9069 90.6397 72.9767 90.6397 72.9767 90.7093C72.9767 90.7789 72.9767 90.8485 72.9767 90.9182C72.9767 90.9878 72.9767 91.0574 72.9767 91.127C72.9767 91.1966 72.9767 91.2662 72.9069 91.2662C72.9069 91.3359 72.8372 91.3358 72.8372 91.3358H72.7674H69.7674V94.5382H73.3255C73.3953 94.5382 73.3953 94.5382 73.3953 94.5382L73.4651 94.6078C73.4651 94.6774 73.5348 94.6774 73.5348 94.747C73.6046 95.2343 73.6046 95.3039 73.6046 95.3736Z" fill="#BD982E"/>
</g>
<defs>
<clipPath id="clip0_826_41">
<rect width="183" height="96" fill="white"/>
</clipPath>
</defs>
</svg>
